# xmcd
#
# Track frame offsets: 
#        150
#        12134
#        23627
#        37214
#        48869
#        58943
#        71060
#        80962
#        92980
#        104432
#
# Disc length: 1554 seconds
#
# Revision: 0
# Processed by: cddbd v1.5.2PL0 Copyright (c) Steve Scherf et al.
# Submitted via: ExactAudioCopyFreeDBPlugin 1.0
#
DISCID=8906100a
DTITLE=Glen Campbell - 1975 - Arkansas
DYEAR=1975
DGENRE=
TTITLE0=Arkansas
TTITLE1=That's All That Matters
TTITLE2=She Called Me Baby
TTITLE3=Less of Me
TTITLE4=Sunny Day Girl
TTITLE5=A Place in the Sun
TTITLE6=Just Another Man
TTITLE7=It's Over
TTITLE8=You've Still Got a Place in My Heart
TTITLE9=Freeborn Man
EXTD=
EXTT0=
EXTT1=
EXTT2=
EXTT3=
EXTT4=
EXTT5=
EXTT6=
EXTT7=
EXTT8=
EXTT9=
PLAYORDER=
